<svg width="35" height="37" viewBox="0 0 35 37" fill="none" xmlns="http://www.w3.org/2000/svg">
<path d="M12.3018 19.5457C11.6543 19.7971 10.9231 19.5228 10.6031 18.9058L4.66173 7.46483C3.96856 6.10897 4.49415 4.45604 5.85001 3.76288C5.9338 3.72479 6.00997 3.68671 6.09376 3.64862C7.62481 3.03163 9.30821 3.93046 9.73477 5.48436L9.74239 5.50722L13.1168 17.9309C13.292 18.5935 12.9416 19.2943 12.3018 19.5457Z" fill="#F98500"/>
<path d="M11.9818 13.7795L10.2984 14.4422C9.98612 14.5565 9.63573 14.4041 9.50624 14.0918C9.38436 13.7795 9.53671 13.4215 9.84901 13.2996L11.6543 12.5912L11.9818 13.7795Z" fill="#FA6D00"/>
<path d="M12.6369 16.1637L11.1897 16.7045C10.8774 16.8111 10.5346 16.6664 10.3975 16.3541C10.2756 16.0418 10.4279 15.6838 10.7479 15.5619L12.317 14.9754L12.6369 16.1637Z" fill="#FA6D00"/>
<path d="M19.4695 8.35605C18.9592 8.00566 18.7002 7.38866 18.8145 6.77167C19.0963 5.35488 18.1822 3.97616 16.7578 3.68671C16.7426 3.68671 16.7197 3.67909 16.7045 3.67909C16.118 3.58007 15.6305 3.16113 15.4477 2.58984C15.402 2.45273 15.3486 2.31562 15.2877 2.18613C14.6402 0.891204 13.0711 0.365618 11.7762 1.01308C10.5498 1.62245 10.0014 3.07734 10.5193 4.34179C10.7859 4.99687 10.9154 5.59101 10.466 6.22324C9.62814 7.4039 9.90997 9.04159 11.0906 9.87187C11.0983 9.87949 11.1135 9.8871 11.1211 9.89472C11.6315 10.2527 11.8752 10.8773 11.7533 11.4867C11.4791 12.9035 12.4084 14.2822 13.8328 14.5564C15.1125 14.8002 16.3693 14.0766 16.8035 12.8502C18.0984 13.4976 19.6676 12.9644 20.3151 11.6771C20.894 10.5117 20.5359 9.10253 19.4695 8.35605Z" fill="#598C44"/>
<path d="M25.4109 10.4508C25.0682 9.93281 25.0605 9.2625 25.3957 8.73691C26.1955 7.53339 25.8603 5.90332 24.6568 5.10351C24.6416 5.0959 24.6264 5.08066 24.6111 5.07304C23.8646 4.60078 23.918 3.93047 23.857 3.16113C23.7504 1.72148 22.4859 0.639841 21.0463 0.746482C19.6828 0.853122 18.624 1.98808 18.624 3.35918C18.624 4.06758 18.5174 4.66172 17.8699 5.08066C16.6512 5.85761 16.2932 7.48007 17.0777 8.69882C17.0853 8.70644 17.093 8.72168 17.1006 8.72929C17.4357 9.25488 17.4357 9.92519 17.0853 10.4432C16.3008 11.6543 16.6435 13.2768 17.8547 14.0689C18.9439 14.7773 20.3912 14.5793 21.2443 13.6043C22.2041 14.6859 23.857 14.7926 24.9387 13.8404C25.9137 12.9873 26.1117 11.54 25.4109 10.4508Z" fill="#5F9548"/>
<path d="M29.4861 17.809L22.1736 15.3715L26.2031 3.29062C26.6906 1.83574 28.176 0.708396 29.7223 0.746482C30.682 0.769333 31.5809 0.952146 32.335 1.56152C33.5537 2.53652 34.0336 4.1666 33.5385 5.64433L29.4861 17.809Z" fill="#FFB531"/>
<path d="M24.6111 11.7152V33.6527H6.3299V11.7152L8.15802 12.934L9.98615 11.7152L11.8143 12.934L13.6424 11.7152L15.4705 12.934L17.2986 11.7152L19.1268 12.934L20.9549 11.7152L22.783 12.934L24.6111 11.7152Z" fill="#FFB531"/>
<path d="M24.6111 16.7654V33.6527H6.3299V29.9584C13.0406 27.7037 19.6904 23.5981 24.6111 16.7654Z" fill="#FCAC1F"/>
<path d="M31.9236 11.7152V33.6527H24.6111V11.7152L26.4393 12.934L28.2674 11.7152L30.0955 12.934L31.9236 11.7152Z" fill="#F98500"/>
<path d="M6.44415 36.0902C9.13654 36.0902 11.3192 33.9076 11.3192 31.2152C11.3192 28.5229 9.13654 26.3402 6.44415 26.3402C3.75176 26.3402 1.56915 28.5229 1.56915 31.2152C1.56915 33.9076 3.75176 36.0902 6.44415 36.0902Z" fill="#F35244"/>
<path d="M16.6893 23.2934L17.2986 24.5121C16.5445 25.2662 16.2399 26.3631 16.4988 27.4066L16.6893 28.1684H14.2518V27.2391C14.2518 25.5709 15.1963 24.0398 16.6893 23.2934Z" fill="#5F9548"/>
<path d="M13.1168 36.0902C12.3475 36.0902 11.6619 35.5875 11.441 34.8486L10.0699 30.2707C9.68907 28.9986 10.527 27.559 11.9361 27.559C12.6217 27.559 13.2539 27.917 13.6043 28.5035L14.8611 30.6059V34.3459C14.8611 35.3057 14.0766 36.0902 13.1168 36.0902Z" fill="#FA9F0C"/>
<path d="M17.8242 36.0902C18.5936 36.0902 19.2791 35.5875 19.5 34.8486L20.8711 30.2707C21.2596 28.9834 20.4065 27.559 19.0049 27.559C18.3193 27.559 17.6871 27.917 17.3367 28.5035L16.0799 30.6059V34.3459C16.0799 35.3057 16.8645 36.0902 17.8242 36.0902Z" fill="#FA9F0C"/>
<path d="M15.4705 27.559C16.4836 27.559 17.2986 28.374 17.2986 29.3871V34.2621C17.2986 35.2752 16.4836 36.0902 15.4705 36.0902C14.4574 36.0902 13.6424 35.2752 13.6424 34.2621V29.3871C13.6424 28.374 14.4574 27.559 15.4705 27.559Z" fill="#FFB531"/>
<path d="M32.7158 1.08926C31.5885 0.182813 30.0422 -0.0914062 28.5721 0.335156C27.14 0.754102 26.066 1.76719 25.6242 3.1002L23.1639 10.4889L22.8744 10.0623L21.8537 10.7402V8.27988L23.5447 7.15254L22.8668 6.13945L21.8461 6.81738V4.02187H20.6274V6.80976L19.6143 6.13184L18.9363 7.14492L20.6274 8.27227V10.7326L19.6143 10.0547L18.9363 11.0678L19.8733 11.6924L19.1192 12.1951L17.6262 11.2049C17.5576 11.1592 17.4891 11.1287 17.4129 11.1135C17.4586 10.9992 17.5195 10.885 17.5881 10.7783C18.0604 10.0547 18.0604 9.12539 17.5957 8.39414C17.1691 7.74668 17.1844 6.7793 17.6262 6.13184C17.8166 5.85762 18.5936 5.30156 18.7992 5.02734C19.2029 4.49414 19.2486 3.88477 19.2943 3.35156C19.3248 2.93262 19.3553 2.56699 19.5381 2.28516C20.1246 1.34824 21.3662 1.06641 22.3031 1.65293C22.5012 1.7748 22.6688 1.93477 22.8135 2.10996C23.141 2.52129 23.1715 2.93262 23.2096 3.48867C23.2248 3.6791 23.24 3.88477 23.2629 4.09805L24.474 3.9457C24.4512 3.76289 24.4359 3.58008 24.4283 3.40488C24.3826 2.74219 24.3293 2.06426 23.7733 1.35586C22.6688 -0.0457032 20.6426 -0.281836 19.241 0.815039C18.9516 1.04355 18.7002 1.31777 18.5022 1.63008C18.167 2.16328 18.1213 2.74219 18.0756 3.24492C18.068 3.35918 18.0604 3.46582 18.0451 3.57246C17.6719 3.32109 17.2453 3.1459 16.7959 3.06211C16.4303 3.00117 16.1256 2.74219 16.0113 2.3918C15.7447 1.56152 15.1658 0.875977 14.3889 0.479883C13.6272 0.0761719 12.7359 7.26432e-08 11.9133 0.266602C10.7022 0.670313 9.81856 1.80527 9.71192 3.10781C9.67384 3.60293 9.79571 4.03711 9.91759 4.42559C9.3463 3.48867 8.34844 2.89453 7.25157 2.82598L7.27442 0.121875L6.05567 0.114258L6.04044 1.87383L5.30919 0L4.19708 0.464648L4.92833 2.33848L3.72481 1.05879L2.84122 1.88906L4.69219 3.86953C3.68672 4.90547 3.45059 6.45937 4.1209 7.73906L5.38536 10.1766L6.467 9.61289L5.20255 7.17539C4.66172 6.13184 5.06544 4.84453 6.10899 4.30371C7.15255 3.76289 8.43985 4.1666 8.98067 5.21016C9.04923 5.34727 9.10255 5.48437 9.14825 5.63672L9.1711 5.71289L7.20587 6.48223L7.64766 7.61719L9.49102 6.90117V6.90879C9.37677 7.34297 9.3463 7.79238 9.42247 8.2418L8.09708 8.75976L8.53887 9.89473L9.84903 9.38437C10.1537 9.89473 10.6793 10.367 10.6793 10.367L8.98067 11.0297L9.17872 11.5248L8.16563 12.2027L6.67266 11.2125C6.39083 11.0221 6.01758 11.0982 5.82716 11.3801C5.7586 11.4791 5.72813 11.601 5.72813 11.7152V24.5121H6.94688V12.8502L7.83048 13.4367C8.03614 13.5738 8.30274 13.5738 8.50841 13.4367L10.0014 12.4465L11.4943 13.4367C11.7 13.5738 11.9666 13.5738 12.1723 13.4367L13.6652 12.4465L15.1582 13.4367C15.3639 13.5738 15.6305 13.5738 15.8361 13.4367L17.3291 12.4465L18.8221 13.4367C19.0277 13.5738 19.2943 13.5738 19.5 13.4367L20.993 12.4465L22.4859 13.4367C22.6916 13.5738 22.9582 13.5738 23.1639 13.4367L24.0475 12.8502V33.0434H21.61V34.2621H31.9693C32.3045 34.2621 32.5787 33.9879 32.5787 33.6527V11.7152C32.5787 11.5324 32.4949 11.3648 32.3578 11.2506L34.1631 5.84238C34.6887 4.1209 34.125 2.22422 32.7158 1.08926ZM16.5902 9.07969C16.6436 9.16348 16.6816 9.25488 16.7045 9.35391L16.2856 9.9709L15.3563 7.68574L16.1713 6.48223C15.958 7.3582 16.0951 8.3332 16.5902 9.07969ZM12.3399 11.86C12.4998 11.2125 12.3703 10.5346 11.9971 9.98613C11.6391 9.46816 11.0678 9.11016 10.7783 8.54648C10.626 8.24941 10.565 7.90664 10.6031 7.57148C10.6945 6.825 11.2582 6.20039 11.342 5.45391C11.4029 4.90547 11.182 4.37227 11.0678 3.83144C10.8012 2.63555 11.5553 1.42441 12.8426 1.36348C13.4672 1.34062 14.0613 1.60723 14.4574 2.08711C14.8078 2.52129 14.9678 3.09258 15.3182 3.53437C15.5772 3.86191 15.9275 4.09805 16.3236 4.2123C16.7121 4.32656 17.1691 4.3418 17.4281 4.6541C16.9787 4.97402 16.6131 5.39297 16.3617 5.88809L15.4934 5.30918L14.8078 6.29941L13.7566 3.73242L12.6369 4.18945L13.6805 6.76406L12.4922 6.53555L12.2484 7.72383L14.2061 8.16562L15.1582 10.4051L13.9699 10.1766L13.8252 10.8926C13.8176 10.9002 12.6522 11.6314 12.3399 11.86ZM14.4574 11.5248L15.7143 11.7838L15.7981 11.9895L15.4705 12.2027L14.4574 11.5248ZM22.3184 11.8904L22.7906 11.5705L22.6154 12.0885L22.3184 11.8904ZM25.2205 12.8502L26.1041 13.4367C26.3098 13.5738 26.5764 13.5738 26.782 13.4367L27.6656 12.8502V29.7375L25.2281 32.175V12.8502H25.2205ZM31.3143 12.8502V32.175L28.8768 29.7375V12.8502L29.7604 13.4367C29.966 13.5738 30.2326 13.5738 30.4383 13.4367L31.3143 12.8502ZM28.2674 30.8572L30.4535 33.0434H26.0813L28.2674 30.8572ZM32.9596 5.45391L30.8877 11.6695L30.0955 12.1951L28.6025 11.2049C28.3969 11.0678 28.1303 11.0678 27.9246 11.2049L26.4317 12.1951C26.4317 12.1951 24.9082 11.182 24.893 11.1744C24.6949 11.0678 24.4512 11.083 24.2684 11.2049L24.177 11.2658L26.7744 3.48105C27.0943 2.52891 27.8713 1.81289 28.9149 1.50059C29.9965 1.18066 31.1315 1.37871 31.9541 2.03379C32.9672 2.85645 33.3709 4.21992 32.9596 5.45391Z" fill="black"/>
<path d="M27.5465 5.03003L31.2041 4.42166L31.404 5.62335L27.7464 6.23172L27.5465 5.03003Z" fill="black"/>
<path d="M26.3267 8.68436L29.9843 8.07599L30.1842 9.27767L26.5266 9.88604L26.3267 8.68436Z" fill="black"/>
<path d="M19.0125 26.9496C18.3422 26.942 17.6947 27.2086 17.2225 27.6885C17.2148 27.6809 17.2072 27.6732 17.1996 27.658L17.1006 27.2543C17.1006 27.2467 17.1006 27.2467 17.093 27.2391C16.8568 26.4088 17.3291 25.3576 17.7404 24.9463C17.9232 24.7635 17.9689 24.474 17.8547 24.2455L17.2453 23.0268C17.093 22.7221 16.7273 22.6002 16.4303 22.7525C14.724 23.598 13.65 25.3424 13.6576 27.2391V27.5666C13.5129 27.46 13.3529 27.3609 13.193 27.2695C12.0123 26.6373 10.4813 27.0334 9.78047 28.1455C9.37676 28.793 9.27012 29.6689 9.49863 30.4383L10.2908 33.0814C9.23965 35.1914 6.68027 36.0521 4.57031 35.0086C2.4832 33.9726 1.61484 31.4514 2.62031 29.349C2.63555 29.3186 2.65078 29.2881 2.66602 29.2576L2.68887 31.3295L3.90762 31.3143L3.86953 28.7777L6.29941 28.892L6.36035 27.6732L4.24277 27.5742C4.875 27.1857 5.60625 26.9725 6.34512 26.9496C7.22871 26.9268 8.09707 27.1781 8.82832 27.6732L9.50625 26.6602C8.13516 25.7385 6.42129 25.4871 4.84453 25.967L5.10352 25.3576L3.98379 24.8777L3.1459 26.8277C3.08496 26.8734 3.01641 26.9268 2.95547 26.9801L1.09687 25.1215L0.236133 25.9822L2.10996 27.8561C2.07187 27.9094 2.03379 27.9627 1.9957 28.016L0 28.8691L0.479883 29.9889L1.18066 29.6842C0.335156 32.5939 2.01094 35.6332 4.9207 36.4787C6.84023 37.0348 8.91211 36.5016 10.3289 35.0848C10.4736 34.94 10.6107 34.7801 10.7402 34.6201L10.8621 35.0162C11.2354 36.2654 12.5455 36.9662 13.7947 36.593C13.9699 36.5396 14.1299 36.4711 14.2898 36.3797C15.0287 36.791 15.9275 36.791 16.6664 36.3797C17.7938 37.0271 19.2334 36.631 19.8809 35.5037C19.9723 35.3514 20.0408 35.1838 20.0941 35.0086L21.4652 30.4307C21.549 30.126 21.5871 29.806 21.5719 29.4861C21.5643 28.0922 20.4217 26.9496 19.0125 26.9496ZM16.4379 24.1541L16.575 24.4283C16.0951 25.091 15.7523 26.0584 15.8133 26.9725C15.6381 26.942 15.1582 26.9191 14.8688 27.0258C14.9297 25.8756 15.5086 24.8244 16.4379 24.1541ZM12.0275 34.6734L10.6564 30.0955C10.527 29.6613 10.5879 29.1434 10.8012 28.8006C11.1516 28.2369 11.9971 28.0236 12.6064 28.3512C12.8959 28.5035 13.0102 28.6102 13.1244 28.7549C13.0711 28.9605 13.0406 29.1738 13.0406 29.3871V34.2621C13.0406 34.681 13.1473 35.0924 13.3529 35.458C12.7664 35.5799 12.1951 35.2371 12.0275 34.6734ZM14.2518 34.2621V29.3871C14.2518 28.7168 14.8002 28.1684 15.4705 28.1684C16.1408 28.1684 16.6893 28.7168 16.6893 29.3871V34.2621C16.6893 34.9324 16.1408 35.4809 15.4705 35.4809C14.8002 35.4809 14.2518 34.9324 14.2518 34.2621ZM20.2922 30.0955L18.9211 34.6734C18.7535 35.2371 18.1746 35.5799 17.5957 35.458C17.8014 35.0924 17.908 34.681 17.908 34.2621V29.3871C17.908 29.1967 17.8852 29.0139 17.8395 28.8311C17.9994 28.5873 18.365 28.1684 19.0049 28.1684C19.7437 28.1684 20.3379 28.7701 20.3379 29.5014C20.3531 29.6994 20.3379 29.9051 20.2922 30.0955Z" fill="black"/>
</svg>
